<?xml version="1.0" encoding="UTF-8" standalone="no"?>
<svg
   xmlns:dc="http://purl.org/dc/elements/1.1/"
   xmlns:cc="http://creativecommons.org/ns#"
   xmlns:rdf="http://www.w3.org/1999/02/22-rdf-syntax-ns#"
   xmlns:svg="http://www.w3.org/2000/svg"
   xmlns="http://www.w3.org/2000/svg"
   id="Layer_1"
   data-name="Layer 1"
   viewBox="0 0 535.19 116.29"
   version="1.1">
  <metadata
     id="metadata61">
    <rdf:RDF>
      <cc:Work
         rdf:about="">
        <dc:format>image/svg+xml</dc:format>
        <dc:type
           rdf:resource="http://purl.org/dc/dcmitype/StillImage" />
        <dc:title>logo_horizontal_colour</dc:title>
      </cc:Work>
    </rdf:RDF>
  </metadata>
  <defs
     id="defs12">
    <style
       id="style10">.cls-1{fill:#d0d0d0;}.cls-2{fill:#f2922f;}.cls-3{fill:#35a949;}.cls-4{fill:#100c08;}.cls-5{fill:#1b87bf;}</style>
  </defs>
  <title
     id="title14">logo_horizontal_colour</title>
  <polyline
     class="cls-1"
     points="509.41 33.11 509.23 22.25 535.18 32.93 509.41 33.65"
     id="polyline16" />
  <path
     class="cls-2"
     d="M472.12,241a57.69,57.69,0,0,1-18.79-3.26c-25-8.65-41.37-32.87-38.49-62l9.63,9.09c1.29,19.69,11.68,36.42,32.25,43.55a48.42,48.42,0,0,0,59.75-25.63c5.25-11.34,5.74-23,1.76-35.81,0,0,10.25,0,10.38-.07s.11-.07.13,0A59.73,59.73,0,0,1,525.47,207,58.28,58.28,0,0,1,472.12,241Z"
     transform="translate(-32.39 -124.67)"
     id="path18" />
  <path
     class="cls-3"
     d="M433.4,154.51l-8.47-5.11a58.33,58.33,0,0,1,69.45-20.54,61.23,61.23,0,0,1,25.35,19.67h0l-13.17.2A45.48,45.48,0,0,0,490.06,138C470.53,130,447.53,136.27,433.4,154.51Z"
     transform="translate(-32.39 -124.67)"
     id="path20" />
  <path
     class="cls-4"
     d="M32.39,199V166.33H46.87a19.12,19.12,0,0,1,6.63.88,7.19,7.19,0,0,1,3.63,3.1,9.26,9.26,0,0,1,1.36,4.93,8.2,8.2,0,0,1-2.25,5.85q-2.25,2.39-6.94,3a11,11,0,0,1,2.6,1.63,22.24,22.24,0,0,1,3.59,4.34L61.16,199H55.73l-4.32-6.79q-1.89-2.94-3.12-4.5a9.84,9.84,0,0,0-2.19-2.18,6.57,6.57,0,0,0-2-.87,13.49,13.49,0,0,0-2.41-.15h-5V199Zm4.32-18.23H46a13.85,13.85,0,0,0,4.63-.62,4.9,4.9,0,0,0,2.54-2,5.28,5.28,0,0,0,.87-2.92,4.85,4.85,0,0,0-1.68-3.81c-1.12-1-2.89-1.49-5.31-1.49H36.71Z"
     transform="translate(-32.39 -124.67)"
     id="path22"
     style="fill:#ffffff;fill-opacity:1" />
  <path
     class="cls-4"
     d="M61.68,199l12.53-32.64h4.66L92.23,199H87.31l-3.81-9.88H69.85L66.26,199Zm9.42-13.4H82.16l-3.4-9c-1-2.75-1.82-5-2.32-6.77A41.72,41.72,0,0,1,74.68,176Z"
     transform="translate(-32.39 -124.67)"
     id="path24"
     style="fill:#ffffff;fill-opacity:1" />
  <path
     class="cls-4"
     d="M119,187.53l4.32,1.09a14.5,14.5,0,0,1-4.89,8.12,13.47,13.47,0,0,1-8.62,2.79,15.56,15.56,0,0,1-8.59-2.15,13.45,13.45,0,0,1-5-6.22,22.26,22.26,0,0,1-1.73-8.76,19.22,19.22,0,0,1,1.95-8.89,13.34,13.34,0,0,1,5.55-5.77,16.2,16.2,0,0,1,7.91-2,13.34,13.34,0,0,1,8.24,2.5,13,13,0,0,1,4.66,7l-4.26,1a10.09,10.09,0,0,0-3.29-5.19,8.81,8.81,0,0,0-5.44-1.62,10.58,10.58,0,0,0-6.29,1.8,9.54,9.54,0,0,0-3.55,4.84,19.61,19.61,0,0,0-1,6.27,19.88,19.88,0,0,0,1.21,7.27,9.08,9.08,0,0,0,3.77,4.65,10.64,10.64,0,0,0,5.55,1.53,9.28,9.28,0,0,0,6.15-2.09A10.75,10.75,0,0,0,119,187.53Z"
     transform="translate(-32.39 -124.67)"
     id="path26"
     style="fill:#ffffff;fill-opacity:1" />
  <path
     class="cls-4"
     d="M128.7,199V166.33h23.61v3.85H133v10h18.06V184H133v11.11h20V199Z"
     transform="translate(-32.39 -124.67)"
     id="path28"
     style="fill:#ffffff;fill-opacity:1" />
  <path
     class="cls-4"
     d="M189.19,194.45l-3.78,4.84a22.23,22.23,0,0,1-5.35-3.75,13.26,13.26,0,0,1-4.21,2.63,14.77,14.77,0,0,1-5.3.85q-6.09,0-9.17-3.43a8.85,8.85,0,0,1-2.38-6.1,9.2,9.2,0,0,1,1.87-5.65,15.21,15.21,0,0,1,5.59-4.35,17.22,17.22,0,0,1-2.52-3.78,7.85,7.85,0,0,1-.85-3.39,6.4,6.4,0,0,1,2.37-5c1.59-1.38,3.84-2.06,6.76-2.06a9.51,9.51,0,0,1,6.62,2.16,6.85,6.85,0,0,1,2.38,5.28,6.68,6.68,0,0,1-1.18,3.76,16,16,0,0,1-4.77,4l4.55,6a15.68,15.68,0,0,0,1.38-3.72l5.65,1.29a33.27,33.27,0,0,1-1.47,4.4,11.94,11.94,0,0,1-1.33,2.33,26.76,26.76,0,0,0,2.7,2.15A20,20,0,0,0,189.19,194.45ZM169.71,183.5a8.43,8.43,0,0,0-3.23,2.63,5.45,5.45,0,0,0-1.07,3.14,4.38,4.38,0,0,0,1.32,3.3,4.93,4.93,0,0,0,3.56,1.28,7,7,0,0,0,2.82-.58,12.11,12.11,0,0,0,3-1.91Zm2.45-6.79,1.69-1.3c1.25-1,1.87-1.92,1.87-2.87a2.72,2.72,0,0,0-.9-2,4,4,0,0,0-4.78-.1,2.28,2.28,0,0,0-.85,1.73,4.71,4.71,0,0,0,1.43,2.8Z"
     transform="translate(-32.39 -124.67)"
     id="path30"
     style="fill:#ffffff;fill-opacity:1" />
  <path
     class="cls-4"
     d="M195.92,199.39V166.74h4.32v32.65Z"
     transform="translate(-32.39 -124.67)"
     id="path32"
     style="fill:#ffffff;fill-opacity:1" />
  <path
     class="cls-4"
     d="M207.73,199.39V166.74h6.5L222,189.86q1.06,3.22,1.55,4.83c.37-1.19,1-2.93,1.74-5.24l7.82-22.71h5.81v32.65h-4.17V172.06l-9.48,27.33h-3.9l-9.44-27.79v27.79Z"
     transform="translate(-32.39 -124.67)"
     id="path34"
     style="fill:#ffffff;fill-opacity:1" />
  <path
     class="cls-4"
     d="M245.85,199.39V166.74h12.31a30.66,30.66,0,0,1,5,.31,9.87,9.87,0,0,1,4,1.53,8,8,0,0,1,2.62,3.15,10.63,10.63,0,0,1-1.66,11.5q-2.65,2.88-9.58,2.88h-8.37v13.28Zm4.32-17.13h8.44q4.18,0,5.94-1.56a5.52,5.52,0,0,0,1.76-4.38,5.89,5.89,0,0,0-1-3.51,4.85,4.85,0,0,0-2.73-1.93,18.65,18.65,0,0,0-4-.29h-8.35Z"
     transform="translate(-32.39 -124.67)"
     id="path36"
     style="fill:#ffffff;fill-opacity:1" />
  <path
     class="cls-4"
     d="M276.33,199.39V166.74h14.48a19.47,19.47,0,0,1,6.64.88,7.23,7.23,0,0,1,3.62,3.11,9.2,9.2,0,0,1,1.36,4.92,8.23,8.23,0,0,1-2.25,5.86q-2.25,2.37-6.94,3a11.3,11.3,0,0,1,2.6,1.63,22.85,22.85,0,0,1,3.59,4.34l5.68,8.89h-5.44l-4.32-6.79c-1.26-2-2.3-3.46-3.11-4.5a9.63,9.63,0,0,0-2.2-2.18,6.23,6.23,0,0,0-2-.87,12.34,12.34,0,0,0-2.4-.16h-5v14.5Zm4.32-18.24h9.29a13.88,13.88,0,0,0,4.63-.61,5,5,0,0,0,2.54-2,5.31,5.31,0,0,0,.87-2.93,4.87,4.87,0,0,0-1.68-3.81q-1.68-1.49-5.31-1.49H280.65Z"
     transform="translate(-32.39 -124.67)"
     id="path38"
     style="fill:#ffffff;fill-opacity:1" />
  <path
     class="cls-4"
     d="M307.89,183.49q0-8.13,4.36-12.73a14.87,14.87,0,0,1,11.27-4.6,15.62,15.62,0,0,1,8.15,2.16,14.12,14.12,0,0,1,5.54,6,19.51,19.51,0,0,1,1.9,8.76,19.28,19.28,0,0,1-2,8.88,13.66,13.66,0,0,1-5.68,5.94,16.28,16.28,0,0,1-7.93,2,15.48,15.48,0,0,1-8.24-2.22,14.37,14.37,0,0,1-5.5-6.08A18.4,18.4,0,0,1,307.89,183.49Zm4.45.06q0,5.91,3.18,9.3a11.07,11.07,0,0,0,16,0q3.15-3.44,3.15-9.73a16.68,16.68,0,0,0-1.35-7,10.36,10.36,0,0,0-3.94-4.61,10.7,10.7,0,0,0-5.83-1.64,11,11,0,0,0-7.89,3.15Q312.35,176.18,312.34,183.55Z"
     transform="translate(-32.39 -124.67)"
     id="path40"
     style="fill:#ffffff;fill-opacity:1" />
  <path
     class="cls-4"
     d="M354,199.39l-12.65-32.65H346l8.48,23.72q1,2.85,1.71,5.34.76-2.67,1.76-5.34l8.82-23.72h4.41l-12.78,32.65Z"
     transform="translate(-32.39 -124.67)"
     id="path42"
     style="fill:#ffffff;fill-opacity:1" />
  <path
     class="cls-4"
     d="M375.19,199.39V166.74h23.6v3.85H379.51v10h18.05v3.83H379.51v11.11h20v3.86Z"
     transform="translate(-32.39 -124.67)"
     id="path44"
     style="fill:#ffffff;fill-opacity:1" />
  <polygon
     class="cls-3"
     points="534.14 33.24 508.04 22.38 508.04 44.1 534.14 33.24"
     id="polygon46" />
  <polygon
     class="cls-5"
     points="484.84 53.38 458.74 42.52 458.74 64.24 484.84 53.38"
     id="polygon48" />
  <polygon
     class="cls-2"
     points="456.68 73.55 430.57 62.69 430.58 84.42 456.68 73.55"
     id="polygon50" />
  <polygon
     class="cls-3"
     points="406.49 38.37 392.65 24.75 399.69 17.6 410.6 28.34 514.93 28.29 514.94 38.31 406.49 38.37"
     id="polygon52" />
  <path
     class="cls-5"
     d="M433.45,182.83l-16.68-16.5a58.67,58.67,0,0,1,4-10l16.79,16.46,64.55-.05v10Z"
     transform="translate(-32.39 -124.67)"
     id="path54" />
  <polygon
     class="cls-2"
     points="396.35 78.6 382.45 64.97 382.56 50.84 400.45 68.57 439.27 68.52 439.28 78.55 396.35 78.6"
     id="polygon56" />
</svg>
